<?xml version="1.0" encoding="UTF-8"?>
<svg xmlns="http://www.w3.org/2000/svg" width="168" height="27" viewBox="0 0 168 27">
  <g fill="#80828E">
    <path d="M47.63 14.082h5.067c-.073-1.218-.365-2.27-.875-3.16-.51-.889-1.172-1.631-1.987-2.228-.814-.597-1.737-1.041-2.77-1.333-1.033-.293-2.108-.439-3.226-.439-1.531 0-2.892.256-4.083.767-1.19.512-2.2 1.224-3.025 2.137-.827.914-1.452 1.997-1.878 3.251-.425 1.255-.638 2.612-.638 4.073 0 1.413.231 2.71.693 3.89.462 1.182 1.106 2.199 1.932 3.051.826.852 1.829 1.516 3.007 1.99 1.179.476 2.473.713 3.883.713 2.503 0 4.556-.657 6.16-1.972s2.576-3.227 2.916-5.735h-4.994c-.17 1.168-.589 2.1-1.257 2.794-.669.694-1.622 1.041-2.862 1.041-.802 0-1.482-.183-2.041-.548-.56-.365-1.003-.834-1.33-1.406-.329-.573-.566-1.212-.712-1.918-.145-.706-.218-1.4-.218-2.082 0-.706.073-1.419.218-2.137.146-.719.395-1.376.748-1.973.352-.596.808-1.083 1.367-1.46.559-.378 1.251-.567 2.077-.567 2.212 0 3.488 1.084 3.828 3.251zm7.187-6.648h4.921v3.506h.073c.243-.584.571-1.126.984-1.625.413-.5.887-.926 1.422-1.279.534-.353 1.106-.627 1.713-.822.608-.194 1.24-.292 1.896-.292.34 0 .717.061 1.13.183v4.822c-.243-.049-.535-.092-.875-.128-.34-.037-.668-.055-.984-.055-.948 0-1.75.158-2.406.475-.656.317-1.185.749-1.586 1.297-.401.548-.687 1.187-.857 1.918-.17.73-.255 1.522-.255 2.374v8.511h-5.176V7.434zm25.53 7.415c-.243-1.315-.674-2.313-1.294-2.995-.62-.682-1.561-1.023-2.825-1.023-.826 0-1.513.14-2.06.42-.546.28-.984.627-1.312 1.041-.328.414-.559.852-.692 1.315-.134.463-.213.877-.237 1.242h8.42zm-7.968 3.288c.073 1.68.499 2.898 1.276 3.653.778.755 1.896 1.132 3.354 1.132 1.045 0 1.944-.262 2.697-.785.754-.524 1.216-1.078 1.386-1.662h4.556c-.729 2.264-1.847 3.884-3.353 4.858-1.507.974-3.33 1.461-5.468 1.461-1.483 0-2.82-.237-4.01-.712s-2.2-1.15-3.026-2.027c-.826-.877-1.464-1.924-1.913-3.142-.45-1.218-.675-2.557-.675-4.018 0-1.413.231-2.728.693-3.945.462-1.218 1.118-2.271 1.968-3.16.85-.89 1.865-1.59 3.044-2.1 1.179-.512 2.485-.768 3.919-.768 1.604 0 3.001.31 4.192.932 1.19.62 2.169 1.455 2.934 2.502.766 1.047 1.319 2.24 1.659 3.58.34 1.34.462 2.74.364 4.2H72.38zm30.038-1.315c0-.78-.073-1.528-.22-2.247-.145-.718-.394-1.351-.746-1.9-.353-.547-.808-.992-1.367-1.333-.56-.34-1.264-.511-2.115-.511-.85 0-1.567.17-2.15.511-.584.341-1.051.792-1.404 1.352-.352.56-.607 1.2-.765 1.918-.158.718-.237 1.467-.237 2.246 0 .73.085 1.461.255 2.192.17.73.443 1.382.82 1.954.377.573.85 1.035 1.422 1.388.57.354 1.257.53 2.06.53.85 0 1.56-.17 2.132-.511.57-.341 1.027-.798 1.367-1.37.34-.572.583-1.224.729-1.954.146-.731.219-1.486.219-2.265zm.073 7.086h-.073c-.608 1.023-1.404 1.76-2.388 2.21-.984.45-2.096.676-3.335.676-1.41 0-2.65-.274-3.719-.822-1.069-.548-1.95-1.29-2.643-2.228-.692-.938-1.215-2.015-1.567-3.233-.352-1.218-.529-2.484-.529-3.799 0-1.266.177-2.49.529-3.671.352-1.181.875-2.222 1.567-3.123.693-.901 1.562-1.626 2.607-2.174 1.045-.548 2.26-.822 3.645-.822 1.118 0 2.181.238 3.19.713 1.008.474 1.804 1.175 2.387 2.1h.073V.237h5.177V26.32h-4.921v-2.41zm12.558-19.397V.237h-5.176v4.274h5.176zm-5.176 2.923v18.885h5.176V7.434h-5.176zm15.141 0V1.772h-5.176v5.662h-3.135v3.47h3.135v11.141c0 .95.158 1.717.474 2.302.316.584.747 1.035 1.294 1.351.547.317 1.179.53 1.895.64.717.11 1.477.164 2.279.164.51 0 1.033-.012 1.567-.037.535-.024 1.02-.073 1.458-.146v-4.018c-.243.049-.498.085-.765.11-.267.024-.547.036-.839.036-.874 0-1.458-.146-1.75-.438-.29-.292-.437-.877-.437-1.754v-9.351h3.791v-3.47h-3.79zm17.597 7.415c-.243-1.315-.674-2.313-1.294-2.995-.62-.682-1.561-1.023-2.825-1.023-.826 0-1.513.14-2.06.42-.546.28-.984.627-1.312 1.041-.328.414-.559.852-.692 1.315-.134.463-.213.877-.237 1.242h8.42zm-8.42 3.288c.073 1.68.498 2.898 1.276 3.653.777.755 1.895 1.132 3.353 1.132 1.045 0 1.944-.262 2.698-.785.753-.524 1.215-1.078 1.385-1.662h4.556c-.729 2.264-1.846 3.884-3.353 4.858-1.507.974-3.33 1.461-5.468 1.461-1.483 0-2.82-.237-4.01-.712s-2.2-1.15-3.025-2.027c-.827-.877-1.465-1.924-1.914-3.142-.45-1.218-.675-2.557-.675-4.018 0-1.413.231-2.728.693-3.945.462-1.218 1.118-2.271 1.968-3.16.851-.89 1.866-1.59 3.044-2.1 1.179-.512 2.485-.768 3.919-.768 1.604 0 3.001.31 4.192.932 1.19.62 2.169 1.455 2.934 2.502.766 1.047 1.319 2.24 1.659 3.58.34 1.34.462 2.74.365 4.2H134.19zm15.987-4.895c.073-1.218.377-2.228.911-3.032.535-.804 1.215-1.45 2.042-1.936.826-.487 1.756-.834 2.788-1.041 1.033-.207 2.072-.31 3.117-.31.948 0 1.908.066 2.88.2s1.859.396 2.66.786c.803.39 1.459.931 1.97 1.625.51.694.765 1.613.765 2.758v9.826c0 .853.048 1.669.146 2.448.097.78.267 1.364.51 1.753h-5.25c-.096-.292-.175-.59-.236-.895-.06-.304-.103-.615-.128-.931-.826.852-1.798 1.449-2.916 1.79-1.118.34-2.26.511-3.426.511-.9 0-1.738-.11-2.516-.329-.777-.219-1.458-.56-2.041-1.022-.583-.463-1.039-1.048-1.367-1.754-.328-.706-.492-1.546-.492-2.52 0-1.072.188-1.955.565-2.649.377-.694.863-1.248 1.458-1.662.595-.414 1.276-.724 2.041-.931.766-.207 1.537-.372 2.315-.493.778-.122 1.543-.22 2.297-.293.753-.073 1.421-.182 2.004-.328.584-.147 1.045-.36 1.386-.64.34-.28.498-.688.474-1.223 0-.56-.092-1.005-.274-1.334-.182-.329-.425-.584-.729-.767-.304-.183-.656-.304-1.057-.365-.401-.061-.832-.091-1.294-.091-1.02 0-1.823.219-2.406.657-.583.438-.923 1.169-1.02 2.192h-5.177zm11.957 3.835c-.22.195-.493.347-.82.457-.329.11-.681.2-1.058.274-.376.073-.771.134-1.184.183-.414.048-.827.11-1.24.182-.389.073-.771.17-1.148.293-.377.121-.705.286-.984.493-.28.207-.505.468-.675.785-.17.317-.255.718-.255 1.206 0 .462.085.852.255 1.168.17.317.401.567.693.75.292.182.632.31 1.02.383.39.073.79.11 1.204.11 1.02 0 1.81-.171 2.369-.512.559-.34.972-.749 1.24-1.224.267-.475.43-.956.491-1.443.061-.487.092-.876.092-1.169v-1.936z"></path>
    <ellipse cx="7.925" cy="7.941" rx="7.925" ry="7.941"></ellipse>
    <path d="M16.898 10.628c.654-2.194.64-4.888-1.072-7.712C17.279 1.136 19.488 0 21.962 0c4.377 0 7.925 3.555 7.925 7.941 0 .726-.097 1.429-.28 2.097-.056.333-.198.722-.413 1.155-.277.618-.63 1.194-1.049 1.716-3.735 5.333-13.198 13.896-13.198 13.896S7.628 20.24 4.833 16.745c1.916 1.543 9.83 1.03 12.065-6.117z"></path>
  </g>
</svg>
