<?xml version="1.0" encoding="UTF-8"?>
<svg xmlns="http://www.w3.org/2000/svg" width="21" height="21" viewBox="0 0 21 21">
  <g fill="none" fill-rule="evenodd" stroke="#2B2D42" stroke-linecap="round">
    <path d="M10.202.588a9.614 9.614 0 0 0-9.614 9.614 9.614 9.614 0 0 0 9.614 9.614c5.31 0 9.615-4.304 9.615-9.614 0-5.31-4.305-9.614-9.615-9.614z"></path>
    <path d="M12.737 6.71a2.535 2.535 0 1 1-5.07 0 2.535 2.535 0 0 1 5.07 0zM3.97 14.266a7.682 7.682 0 0 1 6.176-3.104 7.686 7.686 0 0 1 6.288 3.26"></path>
  </g>
</svg>
