<?xml version="1.0" encoding="UTF-8"?>
<svg xmlns="http://www.w3.org/2000/svg" width="81" height="80" viewBox="0 0 81 80">
  <defs>
    <linearGradient id="rapido-a" x1="85.357%" x2="14.643%" y1="14.642%" y2="85.357%">
      <stop offset="0%" stop-color="#C2E6FF"></stop>
      <stop offset="100%" stop-color="#FFF"></stop>
    </linearGradient>
  </defs>
  <g fill="none">
    <circle cx="41" cy="40" r="40" fill="url(#rapido-a)"></circle>
    <g transform="translate(0 14)">
      <path fill="#FFC80A" d="M9.04835165,47.367033 C4.53846154,39.9340659 2.81978022,33.9516484 2.43296703,26.4659341 C2.74022463,20.0658568 4.80893475,13.8749375 8.41098901,8.57582418 L56.7362637,8.57582418 C59.3024127,8.58062844 61.3835272,10.655853 61.3956044,13.221978 L61.3956044,42.7252747 C61.3835158,45.2906841 59.3017005,47.3646435 56.7362637,47.367033 L9.04835165,47.367033 Z"></path>
      <path fill="#FBF0CB" d="M61.3956044,10.8967033 L61.3956044,39.2307692 C61.3835158,41.7961786 59.3017005,43.870138 56.7362637,43.8725275 L8.15164835,43.8725275 C0.410989011,31.7142857 0.472527473,17.9120879 8.41098901,6.25494505 L56.7362637,6.25494505 C59.3017005,6.25733452 61.3835158,8.33129393 61.3956044,10.8967033 Z"></path>
      <path fill="#2B2D42" d="M7.15384615,7.03296703 L53.6593407,7.03296703 C56.223062,7.03777125 58.3022086,9.1110279 58.3142857,11.6747253 L58.3142857,41.178022 C58.3022222,43.7424369 56.2237738,45.81696 53.6593407,45.8241758 L9.54945055,45.8241758 C0.954595672,34.5774029 0.00814322957,19.2518198 7.15384615,7.03296703 Z" opacity=".1"></path>
      <path fill="#FFF" d="M56.2571429,10.567033 L56.2571429,39.4857143 C56.2571429,41.9133396 54.2891637,43.8813187 51.8615385,43.8813187 L5.29450549,43.8725275 C-0.736263736,31.5250591 -0.736263736,18.4185791 6.29675293,6.18021978 L51.8703297,6.18021978 C54.2910934,6.18505649 56.2523062,8.1462692 56.2571429,10.567033 Z"></path>
      <ellipse cx="17.677" cy="24.971" fill="#BFD1D8" rx="10.884" ry="12.607"></ellipse>
      <circle cx="39.418" cy="25.688" r="4.558" fill="#DCECF3"></circle>
      <rect width="9.011" height="3.934" x="34.912" y="32.396" fill="#BFD1D8" rx="1.967" transform="rotate(-180 39.418 34.363)"></rect>
      <path fill="#DCECF3" d="M5.68571429,39.4857143 L48.6747253,39.4857143 C50.0454549,39.4169415 51.1036712,38.2546705 51.043956,36.8835165 L51.043956,13.3274725 C51.1036712,11.9563185 50.0454549,10.7940475 48.6747253,10.7252747 L5.29450549,10.7252747 C5.58021978,10.0703297 5.88351648,9.40659341 6.21318681,8.78241758 L48.6747253,8.78241758 C51.1182638,8.85189302 53.0458884,10.8836605 52.9868132,13.3274725 L52.9868132,36.8835165 C53.043429,39.3256314 51.116508,41.354693 48.6747253,41.4241758 L6.67912088,41.4241758 C6.33186813,40.7868132 5.99340659,40.1406593 5.68571429,39.4857143 Z"></path>
      <circle cx="58.042" cy="11.587" r="10.822" fill="#FFC80A"></circle>
      <path fill="#FFF" d="M57.7648352,4.61098901 L54.3142857,12.2285714 C54.2599341,12.3602729 54.2727875,12.5101487 54.34877,12.6306727 C54.4247525,12.7511967 54.5544382,12.8274174 54.6967033,12.8351648 L57.1978022,12.9010989 C57.3509327,12.9000295 57.4935829,12.9787318 57.5743402,13.1088408 C57.6550975,13.2389498 57.6623207,13.4017102 57.5934066,13.5384615 L55.0967033,19.0417582 C55.0652907,19.1098502 55.0892018,19.1906784 55.1526038,19.2307217 C55.2160057,19.270765 55.2992658,19.257624 55.3472527,19.2 L62.4241758,10.8483516 C62.5127579,10.7418898 62.5334218,10.5944511 62.4775196,10.4677394 C62.4216174,10.3410277 62.2987893,10.2568943 62.1604396,10.2505495 L59.7296703,10.1318681 C59.5917705,10.1237728 59.4670383,10.0473006 59.3972703,9.92807685 C59.3275023,9.80885304 59.3219288,9.66265091 59.3824176,9.53846154 L61.5318681,5.11208791 C61.5853269,4.9844564 61.5755647,4.83910252 61.5055192,4.71976573 C61.4354737,4.60042895 61.3133229,4.52104227 61.1758242,4.50549451 L58.1692308,4.35600973 C57.9959644,4.35388834 57.8375993,4.45372721 57.7648352,4.61098901 Z"></path>
    </g>
  </g>
</svg>
